<?xml version="1.0" standalone="no"?>
<!DOCTYPE svg PUBLIC "-//W3C//DTD SVG 20010904//EN"
 "http://www.w3.org/TR/2001/REC-SVG-20010904/DTD/svg10.dtd">
<svg version="1.0" xmlns="http://www.w3.org/2000/svg"
 width="16.000000pt" height="16.000000pt" viewBox="0 0 16.000000 16.000000"
 preserveAspectRatio="xMidYMid meet">

<g transform="translate(0.000000,16.000000) scale(0.100000,-0.100000)"
fill="#000000" stroke="none">
<path d="M4 147 c-3 -8 -4 -43 -2 -78 l3 -64 75 0 75 0 0 75 0 75 -73 3 c-55
2 -74 -1 -78 -11z m46 -66 c0 -19 -23 -35 -34 -24 -14 15 -5 43 14 43 13 0 20
-7 20 -19z m40 -11 c0 -3 -7 -7 -15 -7 -8 0 -15 9 -15 20 0 16 3 17 15 7 8 -7
15 -16 15 -20z m20 18 c0 -9 4 -8 10 2 9 13 11 13 20 0 5 -8 10 -17 10 -20 0
-10 -45 -6 -52 4 -11 15 -10 26 2 26 6 0 10 -6 10 -12z"/>
<path d="M20 80 c0 -5 5 -10 10 -10 6 0 10 5 10 10 0 6 -4 10 -10 10 -5 0 -10
-4 -10 -10z"/>
</g>
</svg>
